<svg width="28" height="28" viewBox="0 0 28 28" fill="none" xmlns="http://www.w3.org/2000/svg">
<g id="E_MAIL">
<path id="Vector" d="M14.0723 0.083252C10.5078 0.083252 7.08924 1.49925 4.56875 4.01974C2.04826 6.54023 0.632263 9.95874 0.632263 13.5233C0.632263 17.0878 2.04826 20.5063 4.56875 23.0268C7.08924 25.5473 10.5078 26.9633 14.0723 26.9633C16.852 26.9633 19.7713 26.1258 21.8817 24.7237C21.9948 24.6485 22.092 24.5518 22.1677 24.439C22.2434 24.3263 22.2962 24.1997 22.323 24.0666C22.3499 23.9335 22.3502 23.7963 22.324 23.6631C22.2979 23.5298 22.2457 23.403 22.1705 23.2899C22.0953 23.1768 21.9986 23.0796 21.8859 23.0038C21.7731 22.9281 21.6466 22.8753 21.5134 22.8485C21.3803 22.8217 21.2432 22.8213 21.1099 22.8475C20.9766 22.8737 20.8498 22.9259 20.7367 23.001C18.983 24.1693 16.4256 24.8956 14.0723 24.8956C11.823 24.8956 9.62431 24.2286 7.75415 22.979C5.88398 21.7294 4.42636 19.9533 3.56562 17.8752C2.70488 15.7972 2.47967 13.5106 2.91847 11.3046C3.35727 9.09861 4.44038 7.07226 6.03083 5.48182C7.62127 3.89137 9.64762 2.80826 11.8536 2.36946C14.0596 1.93066 16.3462 2.15587 18.4243 3.01661C20.5023 3.87735 22.2784 5.33497 23.528 7.20514C24.7776 9.0753 25.4446 11.274 25.4446 13.5233C25.4446 16.9414 24.0385 17.6586 22.86 17.6586C21.6814 17.6586 20.2753 16.9414 20.2753 13.5233V8.35402C20.2753 8.07983 20.1664 7.81687 19.9725 7.62298C19.7787 7.4291 19.5157 7.32018 19.2415 7.32018C18.9673 7.32018 18.7043 7.4291 18.5105 7.62298C18.3166 7.81687 18.2076 8.07983 18.2076 8.35402V8.90454C17.2799 8.07272 16.1231 7.5396 14.888 7.37463C13.6529 7.20966 12.3967 7.42049 11.2832 7.97966C10.1696 8.53882 9.25025 9.4204 8.64489 10.5095C8.03952 11.5987 7.77621 12.8449 7.88925 14.0858C8.00228 15.3268 8.48643 16.5049 9.27862 17.4667C10.0708 18.4285 11.1343 19.1295 12.3306 19.4783C13.5268 19.827 14.8004 19.8074 15.9854 19.422C17.1704 19.0366 18.2118 18.3032 18.974 17.3175C19.7494 18.8682 21.0869 19.7263 22.86 19.7263C25.7728 19.7263 27.5123 17.4079 27.5123 13.5233C27.5085 9.9599 26.0913 6.54357 23.5716 4.02389C21.0519 1.50422 17.6356 0.0870149 14.0723 0.083252ZM14.0723 17.6586C13.2544 17.6586 12.4548 17.4161 11.7748 16.9617C11.0947 16.5073 10.5647 15.8614 10.2517 15.1058C9.93867 14.3502 9.85677 13.5187 10.0163 12.7165C10.1759 11.9143 10.5698 11.1774 11.1481 10.5991C11.7264 10.0207 12.4633 9.62689 13.2655 9.46733C14.0677 9.30776 14.8992 9.38966 15.6548 9.70265C16.4104 10.0157 17.0563 10.5457 17.5107 11.2258C17.9651 11.9058 18.2076 12.7053 18.2076 13.5233C18.2076 14.62 17.772 15.6719 16.9964 16.4474C16.2209 17.2229 15.169 17.6586 14.0723 17.6586Z" fill="#676767"/>
</g>
</svg>
