<svg width="432" height="536" viewBox="0 0 432 536" fill="none" xmlns="http://www.w3.org/2000/svg">
<path d="M198.486 215.146C192.058 200.89 191.542 184.671 197.052 170.057C202.562 155.443 213.646 143.631 227.865 137.22L335.096 88.872C338.651 87.2691 342.698 87.1477 346.348 88.5345C349.998 89.9212 352.952 92.7025 354.558 96.2665L451.502 311.275C453.109 314.839 453.238 318.894 451.86 322.547C450.483 326.201 447.712 329.154 444.157 330.757L336.926 379.105C322.707 385.516 311.623 397.328 306.113 411.942C300.603 426.556 301.119 442.775 307.547 457.031" fill="#3AB8EB"/>
<path d="M198.486 215.146C192.058 200.89 191.542 184.671 197.052 170.057C202.562 155.443 213.646 143.631 227.865 137.22L335.096 88.872C338.651 87.2691 342.698 87.1477 346.348 88.5345C349.998 89.9212 352.952 92.7025 354.558 96.2665L451.502 311.275C453.109 314.839 453.238 318.894 451.86 322.547C450.483 326.201 447.712 329.154 444.157 330.757L336.926 379.105C322.707 385.516 311.623 397.328 306.113 411.942C300.603 426.556 301.119 442.775 307.547 457.031" stroke="#3D3C3C" stroke-linecap="round" stroke-linejoin="round"/>
<path d="M103.002 468.407C104.609 471.971 107.562 474.752 111.212 476.139C114.862 477.525 118.91 477.404 122.465 475.801L229.695 427.453C243.915 421.042 260.106 420.556 274.706 426.103C289.305 431.65 301.119 442.775 307.546 457.031L198.485 215.146C192.058 200.89 180.244 189.765 165.644 184.218C151.045 178.671 134.854 179.157 120.634 185.568L13.4038 233.916C9.8489 235.519 7.07794 238.472 5.70051 242.126C4.32308 245.779 4.45202 249.834 6.05895 253.398L103.002 468.407Z" fill="#3AB8EB" stroke="#3D3C3C" stroke-linecap="round" stroke-linejoin="round"/>
<path d="M216.689 132.318C210.261 118.062 209.745 101.843 215.255 87.2289C220.765 72.6149 231.849 60.803 246.068 54.3917L353.299 6.04352C356.854 4.44068 360.901 4.31927 364.551 5.70601C368.201 7.09275 371.155 9.87405 372.762 13.438L469.705 228.447C471.312 232.011 471.441 236.065 470.063 239.719C468.686 243.372 465.915 246.325 462.36 247.928L355.129 296.276C340.91 302.688 329.826 314.5 324.316 329.114C318.807 343.728 319.322 359.947 325.75 374.203" stroke="#FDBF0F" stroke-width="2" stroke-linecap="round" stroke-linejoin="round"/>
<path d="M121.205 385.578C122.812 389.142 125.766 391.923 129.416 393.31C133.065 394.697 137.113 394.575 140.668 392.973L247.899 344.624C262.118 338.213 278.309 337.727 292.909 343.274C307.509 348.821 319.322 359.947 325.75 374.203L216.688 132.318C210.261 118.062 198.448 106.937 183.848 101.39C169.248 95.8428 153.057 96.3284 138.837 102.74L31.6069 151.088C28.052 152.691 25.2811 155.644 23.9036 159.297C22.5262 162.951 22.6551 167.006 24.2621 170.57L121.205 385.578Z" stroke="#FDBF0F" stroke-width="2" stroke-linecap="round" stroke-linejoin="round"/>
</svg>
