<svg width="250" height="206" viewBox="0 0 250 206" fill="none" xmlns="http://www.w3.org/2000/svg">
<path d="M158.658 48.2827C160.49 41.4167 164.968 35.5577 171.106 31.9949C177.245 28.432 184.541 27.4571 191.389 29.2846L243.035 43.0656C244.747 43.5225 246.207 44.6425 247.094 46.1793C247.98 47.7162 248.221 49.5439 247.763 51.2604L220.131 154.815C219.673 156.531 218.553 157.996 217.019 158.887C215.484 159.778 213.66 160.021 211.948 159.564L160.303 145.783C153.454 143.956 146.158 144.931 140.02 148.494C133.882 152.057 129.404 157.916 127.572 164.782" fill="#F9784B"/>
<path d="M158.658 48.2827C160.49 41.4167 164.968 35.5577 171.106 31.9949C177.245 28.432 184.541 27.4571 191.389 29.2846L243.035 43.0656C244.747 43.5225 246.207 44.6425 247.094 46.1793C247.98 47.7162 248.221 49.5439 247.763 51.2604L220.131 154.815C219.673 156.531 218.553 157.996 217.019 158.887C215.484 159.778 213.66 160.021 211.948 159.564L160.303 145.783C153.454 143.956 146.158 144.931 140.02 148.494C133.882 152.057 129.404 157.916 127.572 164.782" stroke="#3D3C3C" stroke-linecap="round" stroke-linejoin="round"/>
<path d="M52.2832 110.027C51.8251 111.743 52.066 113.571 52.9528 115.108C53.8396 116.645 55.2997 117.765 57.0118 118.222L108.657 132.003C115.506 133.83 121.346 138.31 124.893 144.457C128.44 150.605 129.404 157.916 127.572 164.782L158.658 48.2828C160.49 41.4167 159.527 34.1058 155.98 27.9585C152.433 21.8113 146.592 17.3311 139.744 15.5036L88.0983 1.72262C86.3861 1.26576 84.5621 1.50949 83.0276 2.4002C81.493 3.29091 80.3736 4.75564 79.9156 6.47216L52.2832 110.027Z" fill="#F9784B" stroke="#3D3C3C" stroke-linecap="round" stroke-linejoin="round"/>
<path d="M115.01 66.1385C116.842 59.2724 121.32 53.4135 127.458 49.8507C133.596 46.2878 140.892 45.3129 147.741 47.1404L199.386 60.9214C201.098 61.3782 202.558 62.4983 203.445 64.0351C204.332 65.5719 204.573 67.3996 204.115 69.1162L176.482 172.671C176.024 174.387 174.905 175.852 173.37 176.743C171.836 177.633 170.012 177.877 168.3 177.42L116.654 163.639C109.806 161.812 102.51 162.787 96.3715 166.35C90.2333 169.912 85.7556 175.771 83.9234 182.637" stroke="#F9784B" stroke-width="2" stroke-linecap="round" stroke-linejoin="round"/>
<path d="M8.63474 127.883C8.1767 129.599 8.41758 131.427 9.30437 132.964C10.1912 134.5 11.6512 135.62 13.3634 136.077L65.0088 149.858C71.8574 151.686 77.6977 156.166 81.2449 162.313C84.792 168.461 85.7555 175.771 83.9234 182.637L115.01 66.1385C116.842 59.2724 115.878 51.9616 112.331 45.8143C108.784 39.667 102.944 35.1869 96.0952 33.3594L44.4498 19.5784C42.7377 19.1215 40.9137 19.3653 39.3791 20.256C37.8446 21.1467 36.7252 22.6114 36.2671 24.3279L8.63474 127.883Z" stroke="#F9784B" stroke-width="2" stroke-linecap="round" stroke-linejoin="round"/>
</svg>
