<svg width="455" height="460" viewBox="0 0 455 460" fill="none" xmlns="http://www.w3.org/2000/svg">
<path d="M173.32 158.541C166.93 144.369 166.417 128.245 171.895 113.717C177.372 99.1886 188.391 87.4461 202.527 81.0723L309.128 33.008C312.662 31.4146 316.686 31.2939 320.314 32.6725C323.943 34.0511 326.879 36.8161 328.476 40.3591L424.851 254.105C426.448 257.649 426.576 261.679 425.207 265.312C423.838 268.944 421.083 271.879 417.549 273.473L310.948 321.537C296.812 327.911 285.793 339.653 280.316 354.181C274.838 368.71 275.351 384.833 281.741 399.006" fill="#FDBF0F"/>
<path d="M173.32 158.541C166.93 144.369 166.417 128.245 171.895 113.717C177.372 99.1886 188.391 87.4461 202.527 81.0723L309.128 33.008C312.662 31.4146 316.686 31.2939 320.314 32.6725C323.943 34.0511 326.879 36.8161 328.476 40.3591L424.851 254.105C426.448 257.649 426.576 261.679 425.207 265.312C423.838 268.944 421.083 271.879 417.549 273.473L310.948 321.537C296.812 327.911 285.793 339.653 280.316 354.181C274.838 368.71 275.351 384.833 281.741 399.006" stroke="#3D3C3C" stroke-linecap="round" stroke-linejoin="round"/>
<path d="M78.3975 410.314C79.995 413.858 82.9309 416.622 86.5595 418.001C90.188 419.38 94.2119 419.259 97.746 417.666L204.347 369.601C218.483 363.228 234.579 362.745 249.093 368.259C263.607 373.774 275.351 384.833 281.741 399.006L173.32 158.541C166.93 144.369 155.186 133.309 140.672 127.795C126.158 122.28 110.062 122.763 95.9261 129.137L-10.6749 177.201C-14.2089 178.794 -16.9636 181.73 -18.333 185.362C-19.7023 188.994 -19.5741 193.025 -17.9766 196.568L78.3975 410.314Z" fill="#FDBF0F" stroke="#3D3C3C" stroke-linecap="round" stroke-linejoin="round"/>
<path d="M85.3201 131.541C78.9301 117.369 78.4174 101.245 83.8947 86.7168C89.3721 72.1886 100.391 60.4461 114.527 54.0723L221.128 6.00803C224.662 4.4146 228.686 4.29391 232.314 5.67251C235.943 7.05111 238.879 9.81607 240.476 13.3591L336.851 227.105C338.448 230.649 338.576 234.679 337.207 238.312C335.838 241.944 333.083 244.879 329.549 246.473L222.948 294.537C208.812 300.911 197.793 312.653 192.316 327.181C186.838 341.71 187.351 357.833 193.741 372.006" stroke="#3AB8EB" stroke-width="2" stroke-linecap="round" stroke-linejoin="round"/>
<path d="M-9.60253 383.314C-8.00503 386.858 -5.06907 389.622 -1.44052 391.001C2.18803 392.38 6.21192 392.259 9.74597 390.666L116.347 342.601C130.483 336.228 146.579 335.745 161.093 341.259C175.607 346.774 187.351 357.833 193.741 372.006L85.3201 131.541C78.9301 117.369 67.1862 106.309 52.672 100.795C38.1578 95.2801 22.0622 95.7629 7.92606 102.137L-98.6749 150.201C-102.209 151.794 -104.964 154.73 -106.333 158.362C-107.702 161.994 -107.574 166.025 -105.977 169.568L-9.60253 383.314Z" stroke="#3AB8EB" stroke-width="2" stroke-linecap="round" stroke-linejoin="round"/>
</svg>
