<svg width="26" height="26" viewBox="0 0 26 26" fill="none" xmlns="http://www.w3.org/2000/svg">
<g id="Telegram">
<path id="Vector" d="M24.8713 2.65974C24.7454 2.55103 24.5922 2.47874 24.4283 2.45064C24.2644 2.42254 24.0959 2.4397 23.941 2.50028L3.35831 10.5552C3.06661 10.6686 2.81965 10.8738 2.65461 11.1397C2.48957 11.4056 2.41539 11.718 2.44323 12.0297C2.47107 12.3414 2.59942 12.6357 2.80897 12.8682C3.01852 13.1007 3.29792 13.2588 3.60511 13.3187L8.93815 14.3658V20.3123C8.9371 20.6362 9.03336 20.953 9.21444 21.2215C9.39553 21.4901 9.6531 21.698 9.95378 21.8185C10.254 21.9411 10.5841 21.9705 10.9013 21.9029C11.2185 21.8354 11.508 21.674 11.7321 21.4397L14.3037 18.7726L18.3835 22.3436C18.6778 22.6046 19.0574 22.7491 19.4509 22.7498C19.6233 22.7497 19.7946 22.7226 19.9587 22.6696C20.2268 22.5845 20.4679 22.4307 20.658 22.2235C20.8481 22.0162 20.9807 21.7628 21.0424 21.4884L25.1648 3.5545C25.2017 3.39276 25.1938 3.22404 25.1421 3.06641C25.0904 2.90879 24.9968 2.76821 24.8713 2.65974ZM18.6617 6.31599L9.56276 12.8322L4.52526 11.844L18.6617 6.31599ZM10.5632 20.3123V15.4901L13.0809 17.6981L10.5632 20.3123ZM19.4529 21.1248L11.0557 13.7615L23.1417 5.09927L19.4529 21.1248Z" fill="#676767"/>
</g>
</svg>
