<svg width="26" height="26" viewBox="0 0 26 26" fill="none" xmlns="http://www.w3.org/2000/svg">
<path d="M23.4528 21.5312C21.906 18.8571 19.5223 16.9396 16.7405 16.0306C18.1165 15.2115 19.1856 13.9633 19.7836 12.4777C20.3815 10.9922 20.4753 9.35146 20.0505 7.80746C19.6257 6.26346 18.7059 4.90159 17.4322 3.93099C16.1585 2.96039 14.6014 2.43472 13 2.43472C11.3986 2.43472 9.84154 2.96039 8.56784 3.93099C7.29414 4.90159 6.37426 6.26346 5.94947 7.80746C5.52468 9.35146 5.61847 10.9922 6.21642 12.4777C6.81438 13.9633 7.88345 15.2115 9.25945 16.0306C6.47766 16.9386 4.09398 18.8561 2.54719 21.5312C2.49046 21.6237 2.45284 21.7266 2.43653 21.8339C2.42023 21.9412 2.42557 22.0506 2.45225 22.1558C2.47893 22.261 2.5264 22.3597 2.59187 22.4462C2.65733 22.5328 2.73946 22.6053 2.83342 22.6596C2.92737 22.7138 3.03124 22.7487 3.1389 22.7622C3.24656 22.7757 3.35583 22.7675 3.46026 22.738C3.56469 22.7086 3.66216 22.6585 3.74693 22.5908C3.8317 22.5231 3.90205 22.4391 3.95383 22.3437C5.86727 19.0369 9.2493 17.0625 13 17.0625C16.7507 17.0625 20.1327 19.0369 22.0462 22.3437C22.0979 22.4391 22.1683 22.5231 22.2531 22.5908C22.3378 22.6585 22.4353 22.7086 22.5397 22.738C22.6442 22.7675 22.7534 22.7757 22.8611 22.7622C22.9688 22.7487 23.0726 22.7138 23.1666 22.6596C23.2605 22.6053 23.3427 22.5328 23.4081 22.4462C23.4736 22.3597 23.5211 22.261 23.5477 22.1558C23.5744 22.0506 23.5798 21.9412 23.5635 21.8339C23.5472 21.7266 23.5095 21.6237 23.4528 21.5312ZM7.3125 9.74999C7.3125 8.6251 7.64607 7.52548 8.27102 6.59018C8.89597 5.65488 9.78423 4.92589 10.8235 4.49542C11.8627 4.06495 13.0063 3.95232 14.1096 4.17177C15.2128 4.39122 16.2263 4.9329 17.0217 5.72832C17.8171 6.52373 18.3588 7.53714 18.5782 8.64041C18.7977 9.74368 18.685 10.8872 18.2546 11.9265C17.8241 12.9658 17.0951 13.854 16.1598 14.479C15.2245 15.1039 14.1249 15.4375 13 15.4375C11.4921 15.4359 10.0464 14.8361 8.98011 13.7699C7.91385 12.7036 7.31411 11.2579 7.3125 9.74999Z" fill="#3D3C3C"/>
</svg>
